<svg xmlns="http://www.w3.org/2000/svg" width="23.134" height="23.135" viewBox="0 0 23.134 23.135">
  <path id="reports-chrome" d="M73.9,1095.115l5.137-8.9c.005-.009.009-.018.013-.027a5.189,5.189,0,0,0-.987-6.464h7.421a11.574,11.574,0,0,1-10.917,15.409C74.345,1095.135,74.121,1095.128,73.9,1095.115Zm-7.513-3.369a11.576,11.576,0,0,1-1.49-14.534l5.136,8.9.019.03a5.194,5.194,0,0,0,6.09,2.38l-3.707,6.42A11.487,11.487,0,0,1,66.388,1091.747ZM71,1083.635a3.5,3.5,0,1,1,3.5,3.5A3.5,3.5,0,0,1,71,1083.635Zm-5.215-7.6q.288-.335.6-.651a11.569,11.569,0,0,1,16.359,0,11.622,11.622,0,0,1,2.162,2.983H74.568a5.206,5.206,0,0,0-5.077,4.085Z" transform="translate(-63 -1072)" fill="#97a0b4"/>
</svg>
