<svg xmlns="http://www.w3.org/2000/svg" width="23.244" height="23.013" viewBox="0 0 23.244 23.013">
  <path id="reports-ie" d="M3.635,23.013A3.743,3.743,0,0,1,.871,21.947,2.971,2.971,0,0,1,0,19.487a12.3,12.3,0,0,1,.663-3.794,21.962,21.962,0,0,1,2.2-4.628l.08-.136A17.321,17.321,0,0,1,6.47,6.52c.555-.558.907-.931,1.14-1.177.117-.124.2-.214.27-.283A32.018,32.018,0,0,0,1.244,9.647,12.117,12.117,0,0,1,3.468,5.988,13.164,13.164,0,0,1,6.345,3.643C8.811,2.156,10.6,1.35,12.981,1.35a5.277,5.277,0,0,1,.788.042A15.062,15.062,0,0,1,18.746.016c.186-.01.367-.016.539-.016A3.7,3.7,0,0,1,21.9.766,3.6,3.6,0,0,1,22.9,3.2a9.155,9.155,0,0,1-.674,3.528c.922,1.612,1,3.353,1,5.462,0,.158,0,.311.01.458a5.688,5.688,0,0,1-.01.792H8.3A4.659,4.659,0,0,0,9,15.568a4.787,4.787,0,0,0,1.742,1.793,4.478,4.478,0,0,0,2.447.667,4.6,4.6,0,0,0,2.447-.667,5.34,5.34,0,0,0,1.742-1.876h5.806a10.709,10.709,0,0,1-3.9,5.3,10.522,10.522,0,0,1-6.221,2.043A10.851,10.851,0,0,1,8.212,21.7,10.876,10.876,0,0,1,3.635,23.013Zm-.773-7.32c-1.5,2.925-1.842,4.152-.788,5.212a1.827,1.827,0,0,0,1.383.593,8.9,8.9,0,0,0,3.179-1.01,8.352,8.352,0,0,1-2.369-2.007A10.04,10.04,0,0,1,2.862,15.693Zm10.12-9.381A4.169,4.169,0,0,0,9.913,7.479a4.625,4.625,0,0,0-1.576,3h9.082a4.315,4.315,0,0,0-1.369-3A4.224,4.224,0,0,0,12.981,6.311Zm6.1-4.825a6.382,6.382,0,0,0-2.164.614,8.485,8.485,0,0,1,3.816,2.96c.488-1.35.583-1.746.373-2.168a2.377,2.377,0,0,0-1.078-1.126A1.831,1.831,0,0,0,19.086,1.487Z" transform="translate(0 0)" fill="#97a0b4"/>
</svg>
