<svg xmlns="http://www.w3.org/2000/svg" width="24" height="24" viewBox="0 0 24 24">
  <g id="vuesax_linear_data-2" data-name="vuesax/linear/data-2" transform="translate(-684 -188)">
    <g id="data-2">
      <path id="Vector" d="M5,6H2A2.006,2.006,0,0,1,0,4V2A2.006,2.006,0,0,1,2,0H5A2.006,2.006,0,0,1,7,2V4A2.006,2.006,0,0,1,5,6Z" transform="translate(686 190)" fill="none" stroke="#8c3d88" stroke-linecap="round" stroke-linejoin="round" stroke-width="1.5"/>
      <path id="Vector-2" data-name="Vector" d="M4.8,4H1.2A1.2,1.2,0,0,1,0,2.8V1.2A1.2,1.2,0,0,1,1.2,0H4.8A1.2,1.2,0,0,1,6,1.2V2.8A1.2,1.2,0,0,1,4.8,4Z" transform="translate(700 191)" fill="none" stroke="#8c3d88" stroke-linecap="round" stroke-linejoin="round" stroke-width="1.5"/>
      <path id="Vector-3" data-name="Vector" d="M4.8,4H1.2A1.2,1.2,0,0,1,0,2.8V1.2A1.2,1.2,0,0,1,1.2,0H4.8A1.2,1.2,0,0,1,6,1.2V2.8A1.2,1.2,0,0,1,4.8,4Z" transform="translate(700 198.5)" fill="none" stroke="#8c3d88" stroke-linecap="round" stroke-linejoin="round" stroke-width="1.5"/>
      <path id="Vector-4" data-name="Vector" d="M0,0H7" transform="translate(693 193)" fill="none" stroke="#8c3d88" stroke-linecap="round" stroke-linejoin="round" stroke-width="1.5"/>
      <path id="Vector-5" data-name="Vector" d="M0,0V13a2.006,2.006,0,0,0,2,2H3.5" transform="translate(696.5 193)" fill="#fff" stroke="#8c3d88" stroke-linecap="round" stroke-linejoin="round" stroke-width="1.5"/>
      <path id="Vector-6" data-name="Vector" d="M0,0H3.5" transform="translate(696.5 200.5)" fill="#fff" stroke="#8c3d88" stroke-linecap="round" stroke-linejoin="round" stroke-width="1.5"/>
      <path id="Vector-7" data-name="Vector" d="M4.8,4H1.2A1.2,1.2,0,0,1,0,2.8V1.2A1.2,1.2,0,0,1,1.2,0H4.8A1.2,1.2,0,0,1,6,1.2V2.8A1.2,1.2,0,0,1,4.8,4Z" transform="translate(700 206)" fill="none" stroke="#8c3d88" stroke-linecap="round" stroke-linejoin="round" stroke-width="1.5"/>
      <path id="Vector-8" data-name="Vector" d="M0,0H24V24H0Z" transform="translate(684 188)" fill="none" opacity="0"/>
    </g>
  </g>
</svg>
