<svg id="Business_1_Bold_2_" xmlns="http://www.w3.org/2000/svg" width="20.572" height="17.432" viewBox="0 0 20.572 17.432">
  <path id="Path_9" data-name="Path 9" d="M18.646,249.845a1.916,1.916,0,0,0-1.791,2.622l-2.629,2.294a1.878,1.878,0,0,0-2.148.179L7.7,252.186a1.926,1.926,0,1,0-3.52.58l-1.565,1.872a1.906,1.906,0,0,0-.69-.132,1.948,1.948,0,1,0,1.664.971l1.589-1.9a1.863,1.863,0,0,0,1.836-.305l4.386,2.759a1.947,1.947,0,0,0-.042.4,1.926,1.926,0,1,0,3.715-.7l2.625-2.291a1.923,1.923,0,1,0,.948-3.593Z" transform="translate(0 -240.925)" fill="#f69179"/>
  <path id="Path_10" data-name="Path 10" d="M18.646,37.386a1.916,1.916,0,0,0-1.791,2.622L14.226,42.3a1.878,1.878,0,0,0-2.148.179L7.7,39.727a1.926,1.926,0,1,0-3.52.58L2.616,42.18a1.923,1.923,0,1,0,1.236,1.794,1.908,1.908,0,0,0-.262-.954l1.589-1.9a1.93,1.93,0,0,0,.644.118,1.908,1.908,0,0,0,1.192-.424L11.4,43.574a1.947,1.947,0,0,0-.042.4,1.926,1.926,0,1,0,3.715-.7L17.7,40.98a1.923,1.923,0,1,0,.948-3.594Z" transform="translate(0 -37.386)" fill="#f69179"/>
</svg>
